<svg width="1642" height="661" viewBox="0 0 1642 661" fill="none" xmlns="http://www.w3.org/2000/svg">
<path d="M0 50C0 22.3857 22.3858 0 50 0H1592C1619.61 0 1642 22.3858 1642 50V595C1642 622.614 1619.61 645 1592 645H50C22.3857 645 0 622.614 0 595V50Z" fill="#5452C1"/>
<path d="M366.234 480.308C361.71 480.308 357.905 478.869 354.821 475.99C351.942 472.905 350.502 469.101 350.502 464.577V376.358C350.502 363.403 347.315 353.841 340.94 347.672C334.566 341.297 326.237 338.109 315.955 338.109C305.262 338.109 296.42 341.811 289.428 349.214C282.642 356.617 279.249 366.076 279.249 377.592H253.647C253.647 364.226 256.526 352.504 262.284 342.428C268.041 332.146 276.061 324.126 286.343 318.368C296.831 312.61 308.758 309.731 322.124 309.731C333.846 309.731 344.231 312.302 353.279 317.443C362.327 322.584 369.318 330.192 374.254 340.269C379.395 350.139 381.965 362.169 381.965 376.358V464.577C381.965 469.101 380.526 472.905 377.647 475.99C374.768 478.869 370.964 480.308 366.234 480.308ZM160.493 480.308C155.968 480.308 152.164 478.869 149.08 475.99C146.201 472.905 144.761 469.101 144.761 464.577V327.313C144.761 322.584 146.201 318.779 149.08 315.901C152.164 313.022 155.968 311.582 160.493 311.582C165.222 311.582 169.027 313.022 171.905 315.901C174.784 318.779 176.224 322.584 176.224 327.313V464.577C176.224 469.101 174.784 472.905 171.905 475.99C169.027 478.869 165.222 480.308 160.493 480.308ZM263.517 480.308C258.993 480.308 255.189 478.869 252.104 475.99C249.226 472.905 247.786 469.101 247.786 464.577V376.358C247.786 363.403 244.599 353.841 238.224 347.672C231.849 341.297 223.521 338.109 213.239 338.109C202.546 338.109 193.703 341.811 186.711 349.214C179.72 356.617 176.224 366.076 176.224 377.592H156.791C156.791 364.226 159.464 352.504 164.811 342.428C170.158 332.146 177.561 324.126 187.02 318.368C196.479 312.61 207.275 309.731 219.408 309.731C231.129 309.731 241.514 312.302 250.562 317.443C259.61 322.584 266.602 330.192 271.537 340.269C276.678 350.139 279.249 362.169 279.249 376.358V464.577C279.249 469.101 277.809 472.905 274.93 475.99C272.051 478.869 268.247 480.308 263.517 480.308ZM453.057 480C448.533 480 444.729 478.561 441.644 475.682C438.766 472.597 437.326 468.793 437.326 464.269V327.005C437.326 322.275 438.766 318.471 441.644 315.592C444.729 312.713 448.533 311.274 453.057 311.274C457.787 311.274 461.591 312.713 464.47 315.592C467.349 318.471 468.789 322.275 468.789 327.005V464.269C468.789 468.793 467.349 472.597 464.47 475.682C461.591 478.561 457.787 480 453.057 480ZM453.057 283.821C447.505 283.821 442.673 281.867 438.56 277.96C434.653 273.847 432.699 269.015 432.699 263.463C432.699 257.91 434.653 253.181 438.56 249.274C442.673 245.161 447.505 243.104 453.057 243.104C458.61 243.104 463.339 245.161 467.246 249.274C471.359 253.181 473.416 257.91 473.416 263.463C473.416 269.015 471.359 273.847 467.246 277.96C463.339 281.867 458.61 283.821 453.057 283.821ZM669.829 480.308C665.304 480.308 661.5 478.869 658.416 475.99C655.537 472.905 654.097 469.101 654.097 464.577V388.697C654.097 376.975 651.938 367.413 647.62 360.01C643.301 352.607 637.44 347.158 630.037 343.662C622.84 339.96 614.512 338.109 605.052 338.109C596.416 338.109 588.601 339.857 581.61 343.353C574.618 346.849 569.066 351.579 564.953 357.542C560.84 363.3 558.784 369.983 558.784 377.592H539.351C539.351 364.637 542.435 353.121 548.605 343.045C554.979 332.763 563.616 324.64 574.515 318.677C585.414 312.713 597.649 309.731 611.222 309.731C625.411 309.731 638.057 312.816 649.162 318.985C660.472 324.949 669.314 333.791 675.689 345.512C682.27 357.234 685.56 371.629 685.56 388.697V464.577C685.56 469.101 684.018 472.905 680.933 475.99C678.054 478.869 674.353 480.308 669.829 480.308ZM543.052 480.308C538.528 480.308 534.724 478.869 531.639 475.99C528.761 472.905 527.321 469.101 527.321 464.577V327.005C527.321 322.275 528.761 318.471 531.639 315.592C534.724 312.713 538.528 311.274 543.052 311.274C547.782 311.274 551.586 312.713 554.465 315.592C557.344 318.471 558.784 322.275 558.784 327.005V464.577C558.784 469.101 557.344 472.905 554.465 475.99C551.586 478.869 547.782 480.308 543.052 480.308ZM816.852 481.234C799.784 481.234 784.567 477.635 771.2 470.438C758.039 463.035 747.655 452.959 740.046 440.209C732.643 427.254 728.942 412.448 728.942 395.791C728.942 378.929 732.437 364.123 739.429 351.373C746.626 338.418 756.497 328.342 769.041 321.144C781.585 313.741 795.98 310.04 812.225 310.04C828.265 310.04 842.043 313.638 853.558 320.836C865.074 327.828 873.814 337.595 879.777 350.139C885.946 362.478 889.031 376.769 889.031 393.015C889.031 396.922 887.694 400.212 885.021 402.886C882.348 405.353 878.955 406.587 874.842 406.587H750.534V381.91H873.917L861.27 390.547C861.064 380.265 859.008 371.114 855.101 363.095C851.194 354.869 845.641 348.391 838.444 343.662C831.247 338.932 822.507 336.567 812.225 336.567C800.504 336.567 790.427 339.138 781.996 344.279C773.771 349.42 767.499 356.514 763.18 365.562C758.862 374.405 756.703 384.481 756.703 395.791C756.703 407.101 759.273 417.177 764.414 426.02C769.555 434.862 776.65 441.854 785.698 446.995C794.746 452.136 805.131 454.706 816.852 454.706C823.227 454.706 829.704 453.575 836.285 451.313C843.071 448.846 848.52 446.07 852.633 442.985C855.718 440.723 859.008 439.592 862.504 439.592C866.205 439.386 869.393 440.415 872.066 442.677C875.562 445.761 877.413 449.154 877.618 452.856C877.824 456.557 876.179 459.745 872.683 462.418C865.691 467.97 856.951 472.494 846.464 475.99C836.182 479.486 826.311 481.234 816.852 481.234ZM944.274 374.507C944.274 362.169 947.256 351.167 953.219 341.502C959.388 331.632 967.614 323.818 977.896 318.06C988.178 312.302 999.488 309.423 1011.83 309.423C1024.16 309.423 1033.32 311.479 1039.28 315.592C1045.45 319.499 1047.81 324.229 1046.37 329.781C1045.76 332.66 1044.52 334.922 1042.67 336.567C1041.03 338.007 1039.07 338.932 1036.81 339.343C1034.55 339.755 1032.08 339.652 1029.41 339.035C1016.25 336.362 1004.42 336.156 993.936 338.418C983.448 340.68 975.12 344.896 968.95 351.065C962.987 357.234 960.005 365.048 960.005 374.507H944.274ZM944.582 480C939.647 480 935.843 478.766 933.169 476.299C930.496 473.625 929.159 469.718 929.159 464.577V326.697C929.159 321.761 930.496 317.957 933.169 315.284C935.843 312.61 939.647 311.274 944.582 311.274C949.723 311.274 953.528 312.61 955.995 315.284C958.669 317.751 960.005 321.556 960.005 326.697V464.577C960.005 469.512 958.669 473.317 955.995 475.99C953.528 478.663 949.723 480 944.582 480ZM1136.24 479.692C1129.86 479.692 1124.93 476.299 1121.43 469.512L1056.04 331.632C1054.39 328.136 1054.19 324.743 1055.42 321.453C1056.86 317.957 1059.53 315.284 1063.44 313.433C1066.94 311.582 1070.43 311.274 1073.93 312.507C1077.63 313.741 1080.4 316.106 1082.26 319.602L1143.33 451.313H1128.52L1188.98 319.602C1190.83 316.106 1193.61 313.741 1197.31 312.507C1201.22 311.274 1205.12 311.582 1209.03 313.433C1212.73 315.078 1215.2 317.648 1216.43 321.144C1217.67 324.64 1217.46 328.136 1215.82 331.632L1150.42 469.512C1147.34 476.299 1142.61 479.692 1136.24 479.692ZM1312.46 481.234C1297.45 481.234 1283.98 477.532 1272.06 470.129C1260.13 462.521 1250.67 452.342 1243.68 439.592C1236.89 426.637 1233.5 412.036 1233.5 395.791C1233.5 379.546 1237.2 364.945 1244.6 351.99C1252.21 339.035 1262.39 328.856 1275.14 321.453C1288.1 313.844 1302.59 310.04 1318.63 310.04C1334.67 310.04 1349.07 313.844 1361.82 321.453C1374.57 328.856 1384.64 339.035 1392.05 351.99C1399.65 364.945 1403.46 379.546 1403.46 395.791H1391.43C1391.43 412.036 1387.93 426.637 1380.94 439.592C1374.16 452.342 1364.8 462.521 1352.87 470.129C1340.94 477.532 1327.48 481.234 1312.46 481.234ZM1318.63 453.473C1329.12 453.473 1338.48 451.005 1346.7 446.07C1354.93 440.929 1361.41 434.04 1366.14 425.403C1370.87 416.561 1373.23 406.69 1373.23 395.791C1373.23 384.687 1370.87 374.816 1366.14 366.179C1361.41 357.337 1354.93 350.448 1346.7 345.512C1338.48 340.371 1329.12 337.801 1318.63 337.801C1308.35 337.801 1298.99 340.371 1290.56 345.512C1282.34 350.448 1275.76 357.337 1270.82 366.179C1266.09 374.816 1263.73 384.687 1263.73 395.791C1263.73 406.69 1266.09 416.561 1270.82 425.403C1275.76 434.04 1282.34 440.929 1290.56 446.07C1298.99 451.005 1308.35 453.473 1318.63 453.473ZM1387.73 480.308C1383.2 480.308 1379.4 478.869 1376.31 475.99C1373.44 472.905 1372 469.101 1372 464.577V417.383L1377.86 384.687L1403.46 395.791V464.577C1403.46 469.101 1401.92 472.905 1398.83 475.99C1395.95 478.869 1392.25 480.308 1387.73 480.308Z" fill="white"/>
<path d="M1428.58 148.187C1466.33 223.661 1534.04 351.516 1531.04 353.019C1459.05 389.028 1283.93 303.147 1246.18 227.673C1221.02 163.093 1292.12 306.931 1376.23 264.136C1460.33 221.342 1394.61 87.2906 1428.58 148.187Z" fill="white"/>
<circle cx="1337.12" cy="188.237" r="90.0487" stroke="white" stroke-width="18.3773"/>
<mask id="path-5-inside-1_365_64" fill="white">
<path d="M1343.24 199.877C1343.24 190.143 1341.33 180.504 1337.6 171.511C1333.88 162.519 1328.42 154.347 1321.53 147.465C1314.65 140.582 1306.48 135.122 1297.49 131.397C1288.49 127.672 1278.86 125.755 1269.12 125.755V142.285C1276.68 142.285 1284.17 143.775 1291.16 146.669C1298.15 149.563 1304.5 153.805 1309.85 159.153C1315.19 164.501 1319.44 170.85 1322.33 177.837C1325.22 184.825 1326.71 192.314 1326.71 199.877H1343.24Z"/>
</mask>
<path d="M1343.24 199.877C1343.24 190.143 1341.33 180.504 1337.6 171.511C1333.88 162.519 1328.42 154.347 1321.53 147.465C1314.65 140.582 1306.48 135.122 1297.49 131.397C1288.49 127.672 1278.86 125.755 1269.12 125.755V142.285C1276.68 142.285 1284.17 143.775 1291.16 146.669C1298.15 149.563 1304.5 153.805 1309.85 159.153C1315.19 164.501 1319.44 170.85 1322.33 177.837C1325.22 184.825 1326.71 192.314 1326.71 199.877H1343.24Z" stroke="white" stroke-width="36.7546" mask="url(#path-5-inside-1_365_64)"/>
<mask id="path-6-inside-2_365_64" fill="white">
<path d="M1330.99 199.877C1330.99 190.143 1332.91 180.504 1336.63 171.511C1340.36 162.519 1345.82 154.347 1352.7 147.465C1359.58 140.582 1367.76 135.122 1376.75 131.397C1385.74 127.672 1395.38 125.755 1405.11 125.755V142.285C1397.55 142.285 1390.06 143.775 1383.07 146.669C1376.09 149.563 1369.74 153.805 1364.39 159.153C1359.04 164.501 1354.8 170.85 1351.91 177.837C1349.01 184.825 1347.52 192.314 1347.52 199.877H1330.99Z"/>
</mask>
<path d="M1330.99 199.877C1330.99 190.143 1332.91 180.504 1336.63 171.511C1340.36 162.519 1345.82 154.347 1352.7 147.465C1359.58 140.582 1367.76 135.122 1376.75 131.397C1385.74 127.672 1395.38 125.755 1405.11 125.755V142.285C1397.55 142.285 1390.06 143.775 1383.07 146.669C1376.09 149.563 1369.74 153.805 1364.39 159.153C1359.04 164.501 1354.8 170.85 1351.91 177.837C1349.01 184.825 1347.52 192.314 1347.52 199.877H1330.99Z" stroke="white" stroke-width="36.7546" mask="url(#path-6-inside-2_365_64)"/>
<path d="M1347.55 199.02C1347.55 200.628 1347.28 202.221 1346.76 203.707C1346.23 205.193 1345.47 206.544 1344.5 207.681C1343.53 208.819 1342.39 209.721 1341.12 210.337C1339.86 210.952 1337.14 212.044 1337.14 212.044C1337.14 212.044 1334.42 210.952 1333.15 210.337C1331.89 209.721 1330.74 208.819 1329.77 207.681C1328.81 206.544 1328.04 205.193 1327.52 203.707C1326.99 202.221 1326.73 200.628 1326.73 199.02L1337.14 199.02H1347.55Z" fill="white"/>
<ellipse cx="1288.91" cy="182.82" rx="16.3451" ry="16.2507" fill="white"/>
<ellipse cx="1385.34" cy="182.82" rx="16.3451" ry="16.2507" fill="white"/>
</svg>
